<?xml version="1.0" encoding="UTF-8"?>
<svg width="100" height="100" viewBox="0 0 100 100" xmlns="http://www.w3.org/2000/svg">
  <defs>
    <linearGradient id="logoGradient" x1="0%" y1="0%" x2="100%" y2="100%">
      <stop offset="0%" style="stop-color:#0ea5e9"/>
      <stop offset="100%" style="stop-color:#2563eb"/>
    </linearGradient>
  </defs>
  
  <!-- Background Circle -->
  <circle cx="50" cy="50" r="45" fill="url(#logoGradient)" stroke="#1e40af" stroke-width="2"/>
  
  <!-- M Letter -->
  <path d="M25 30 L25 70 L30 70 L30 40 L40 55 L45 55 L55 40 L55 70 L60 70 L60 30 L55 30 L42.5 50 L30 30 Z" fill="white" stroke="white" stroke-width="1"/>
  
  <!-- N Letter -->
  <path d="M65 30 L65 70 L70 70 L70 45 L80 65 L85 65 L85 30 L80 30 L80 55 L70 35 L65 35 Z" fill="white" stroke="white" stroke-width="1"/>
  
  <!-- Decorative dot -->
  <circle cx="90" cy="35" r="2" fill="#38bdf8"/>
</svg>